<svg xmlns="http://www.w3.org/2000/svg" xmlns:xlink="http://www.w3.org/1999/xlink" width="64" height="64" viewBox="0 0 32 32">
  <defs>
    <path id="a" d="M44.5 20H24v8.5h11.8C34.7 33.9 30.1 37 24 37a13 13 0 1 1 8.1-23.1l6.4-6.4A21.9 21.9 0 0 0 2 24a22 22 0 0 0 22 22c11 0 21-8 21-22 0-1.3-.2-2.7-.5-4z"/>
  </defs>
  <clipPath id="b">
    <use xlink:href="#a"/>
  </clipPath>
  <path fill="currentColor" d="M0 37V11l17 13z" clip-path="url(#b)" transform="matrix(.72727 0 0 .72727 -1 -1.5)"/>
  <path fill="currentColor" d="m0 11 17 13 7-6.1L48 14V0H0z" clip-path="url(#b)" transform="matrix(.72727 0 0 .72727 -1 -1.5)"/>
  <path fill="currentColor" d="m0 37 30-23 7.9 1L48 0v48H0z" clip-path="url(#b)" transform="matrix(.72727 0 0 .72727 -1 -1.5)"/>
  <path fill="currentColor" d="M48 48 17 24l-4-3 35-10z" clip-path="url(#b)" transform="matrix(.72727 0 0 .72727 -1 -1.5)"/>
</svg>
